<mxfile host="app.diagrams.net" agent="Mozilla/5.0 (X11; Linux x86_64) AppleWebKit/537.36 (KHTML, like Gecko) Chrome/140.0.0.0 Safari/537.36" version="28.2.3">
  <diagram name="Página-1" id="e-iyhVcw-f9uh0HAd9GS">
    <mxGraphModel dx="1360" dy="759" grid="1" gridSize="10" guides="1" tooltips="1" connect="1" arrows="1" fold="1" page="1" pageScale="1" pageWidth="3300" pageHeight="4681" math="0" shadow="0">
      <root>
        <mxCell id="0" />
        <mxCell id="1" parent="0" />
        <mxCell id="E9IQQNpxCoHpaYY9Ilyg-1" value="Usuário" style="whiteSpace=wrap;html=1;align=center;" vertex="1" parent="1">
          <mxGeometry x="340" y="220" width="100" height="40" as="geometry" />
        </mxCell>
        <mxCell id="E9IQQNpxCoHpaYY9Ilyg-3" value="Administrador" style="whiteSpace=wrap;html=1;align=center;" vertex="1" parent="1">
          <mxGeometry x="700" y="480" width="100" height="40" as="geometry" />
        </mxCell>
        <mxCell id="E9IQQNpxCoHpaYY9Ilyg-4" value="Solicita" style="shape=rhombus;perimeter=rhombusPerimeter;whiteSpace=wrap;html=1;align=center;" vertex="1" parent="1">
          <mxGeometry x="510" y="210" width="120" height="60" as="geometry" />
        </mxCell>
        <mxCell id="E9IQQNpxCoHpaYY9Ilyg-5" value="Livro" style="whiteSpace=wrap;html=1;align=center;" vertex="1" parent="1">
          <mxGeometry x="700" y="220" width="100" height="40" as="geometry" />
        </mxCell>
        <mxCell id="E9IQQNpxCoHpaYY9Ilyg-6" value="Gerencia" style="shape=rhombus;perimeter=rhombusPerimeter;whiteSpace=wrap;html=1;align=center;" vertex="1" parent="1">
          <mxGeometry x="690" y="340" width="120" height="60" as="geometry" />
        </mxCell>
        <mxCell id="E9IQQNpxCoHpaYY9Ilyg-7" value="" style="endArrow=none;html=1;rounded=0;exitX=1;exitY=0.5;exitDx=0;exitDy=0;entryX=0;entryY=0.5;entryDx=0;entryDy=0;" edge="1" parent="1" source="E9IQQNpxCoHpaYY9Ilyg-1" target="E9IQQNpxCoHpaYY9Ilyg-4">
          <mxGeometry relative="1" as="geometry">
            <mxPoint x="610" y="390" as="sourcePoint" />
            <mxPoint x="770" y="390" as="targetPoint" />
          </mxGeometry>
        </mxCell>
        <mxCell id="E9IQQNpxCoHpaYY9Ilyg-8" value="" style="endArrow=none;html=1;rounded=0;exitX=1;exitY=0.5;exitDx=0;exitDy=0;entryX=0;entryY=0.5;entryDx=0;entryDy=0;" edge="1" parent="1" source="E9IQQNpxCoHpaYY9Ilyg-4" target="E9IQQNpxCoHpaYY9Ilyg-5">
          <mxGeometry relative="1" as="geometry">
            <mxPoint x="610" y="390" as="sourcePoint" />
            <mxPoint x="770" y="390" as="targetPoint" />
          </mxGeometry>
        </mxCell>
        <mxCell id="E9IQQNpxCoHpaYY9Ilyg-10" value="" style="endArrow=none;html=1;rounded=0;exitX=0.5;exitY=1;exitDx=0;exitDy=0;entryX=0.5;entryY=0;entryDx=0;entryDy=0;" edge="1" parent="1" source="E9IQQNpxCoHpaYY9Ilyg-5" target="E9IQQNpxCoHpaYY9Ilyg-6">
          <mxGeometry relative="1" as="geometry">
            <mxPoint x="610" y="390" as="sourcePoint" />
            <mxPoint x="770" y="390" as="targetPoint" />
          </mxGeometry>
        </mxCell>
        <mxCell id="E9IQQNpxCoHpaYY9Ilyg-11" value="" style="endArrow=none;html=1;rounded=0;entryX=0.5;entryY=1;entryDx=0;entryDy=0;" edge="1" parent="1" source="E9IQQNpxCoHpaYY9Ilyg-3" target="E9IQQNpxCoHpaYY9Ilyg-6">
          <mxGeometry relative="1" as="geometry">
            <mxPoint x="610" y="390" as="sourcePoint" />
            <mxPoint x="770" y="390" as="targetPoint" />
          </mxGeometry>
        </mxCell>
        <mxCell id="E9IQQNpxCoHpaYY9Ilyg-12" value="_name" style="ellipse;whiteSpace=wrap;html=1;align=center;" vertex="1" parent="1">
          <mxGeometry x="200" y="190" width="100" height="40" as="geometry" />
        </mxCell>
        <mxCell id="E9IQQNpxCoHpaYY9Ilyg-13" value="id_user" style="ellipse;whiteSpace=wrap;html=1;align=center;fontStyle=4;" vertex="1" parent="1">
          <mxGeometry x="240" y="140" width="100" height="40" as="geometry" />
        </mxCell>
        <mxCell id="E9IQQNpxCoHpaYY9Ilyg-15" value="phone" style="ellipse;shape=doubleEllipse;margin=3;whiteSpace=wrap;html=1;align=center;" vertex="1" parent="1">
          <mxGeometry x="200" y="240" width="100" height="40" as="geometry" />
        </mxCell>
        <mxCell id="E9IQQNpxCoHpaYY9Ilyg-16" value="_type" style="ellipse;whiteSpace=wrap;html=1;align=center;" vertex="1" parent="1">
          <mxGeometry x="240" y="290" width="100" height="40" as="geometry" />
        </mxCell>
        <mxCell id="E9IQQNpxCoHpaYY9Ilyg-17" value="" style="endArrow=none;html=1;rounded=0;exitX=1;exitY=0.5;exitDx=0;exitDy=0;entryX=0.5;entryY=1;entryDx=0;entryDy=0;" edge="1" parent="1" source="E9IQQNpxCoHpaYY9Ilyg-16" target="E9IQQNpxCoHpaYY9Ilyg-1">
          <mxGeometry relative="1" as="geometry">
            <mxPoint x="610" y="390" as="sourcePoint" />
            <mxPoint x="770" y="390" as="targetPoint" />
          </mxGeometry>
        </mxCell>
        <mxCell id="E9IQQNpxCoHpaYY9Ilyg-18" value="" style="endArrow=none;html=1;rounded=0;exitX=1;exitY=0.5;exitDx=0;exitDy=0;entryX=0;entryY=0.5;entryDx=0;entryDy=0;" edge="1" parent="1" source="E9IQQNpxCoHpaYY9Ilyg-15" target="E9IQQNpxCoHpaYY9Ilyg-1">
          <mxGeometry relative="1" as="geometry">
            <mxPoint x="610" y="390" as="sourcePoint" />
            <mxPoint x="500" y="310" as="targetPoint" />
          </mxGeometry>
        </mxCell>
        <mxCell id="E9IQQNpxCoHpaYY9Ilyg-19" value="" style="endArrow=none;html=1;rounded=0;exitX=1;exitY=0.5;exitDx=0;exitDy=0;entryX=0;entryY=0.5;entryDx=0;entryDy=0;" edge="1" parent="1" source="E9IQQNpxCoHpaYY9Ilyg-12" target="E9IQQNpxCoHpaYY9Ilyg-1">
          <mxGeometry relative="1" as="geometry">
            <mxPoint x="610" y="390" as="sourcePoint" />
            <mxPoint x="770" y="390" as="targetPoint" />
          </mxGeometry>
        </mxCell>
        <mxCell id="E9IQQNpxCoHpaYY9Ilyg-20" value="" style="endArrow=none;html=1;rounded=0;exitX=1;exitY=0.5;exitDx=0;exitDy=0;entryX=0.5;entryY=0;entryDx=0;entryDy=0;" edge="1" parent="1" source="E9IQQNpxCoHpaYY9Ilyg-13" target="E9IQQNpxCoHpaYY9Ilyg-1">
          <mxGeometry relative="1" as="geometry">
            <mxPoint x="340" y="190" as="sourcePoint" />
            <mxPoint x="770" y="390" as="targetPoint" />
          </mxGeometry>
        </mxCell>
        <mxCell id="E9IQQNpxCoHpaYY9Ilyg-21" value="id_book" style="ellipse;whiteSpace=wrap;html=1;align=center;fontStyle=4;" vertex="1" parent="1">
          <mxGeometry x="810" y="140" width="100" height="40" as="geometry" />
        </mxCell>
        <mxCell id="E9IQQNpxCoHpaYY9Ilyg-24" value="autor" style="ellipse;whiteSpace=wrap;html=1;align=center;" vertex="1" parent="1">
          <mxGeometry x="850" y="190" width="100" height="40" as="geometry" />
        </mxCell>
        <mxCell id="E9IQQNpxCoHpaYY9Ilyg-25" value="_title" style="ellipse;whiteSpace=wrap;html=1;align=center;" vertex="1" parent="1">
          <mxGeometry x="850" y="240" width="100" height="40" as="geometry" />
        </mxCell>
        <mxCell id="E9IQQNpxCoHpaYY9Ilyg-26" value="publish_age" style="ellipse;whiteSpace=wrap;html=1;align=center;" vertex="1" parent="1">
          <mxGeometry x="810" y="290" width="100" height="40" as="geometry" />
        </mxCell>
        <mxCell id="E9IQQNpxCoHpaYY9Ilyg-27" value="" style="endArrow=none;html=1;rounded=0;exitX=0.75;exitY=1;exitDx=0;exitDy=0;entryX=0;entryY=0.5;entryDx=0;entryDy=0;" edge="1" parent="1" source="E9IQQNpxCoHpaYY9Ilyg-5" target="E9IQQNpxCoHpaYY9Ilyg-26">
          <mxGeometry relative="1" as="geometry">
            <mxPoint x="610" y="390" as="sourcePoint" />
            <mxPoint x="770" y="390" as="targetPoint" />
          </mxGeometry>
        </mxCell>
        <mxCell id="E9IQQNpxCoHpaYY9Ilyg-28" value="" style="endArrow=none;html=1;rounded=0;entryX=0;entryY=0.5;entryDx=0;entryDy=0;exitX=1;exitY=0.5;exitDx=0;exitDy=0;" edge="1" parent="1" source="E9IQQNpxCoHpaYY9Ilyg-5" target="E9IQQNpxCoHpaYY9Ilyg-25">
          <mxGeometry relative="1" as="geometry">
            <mxPoint x="800" y="240" as="sourcePoint" />
            <mxPoint x="840" y="260" as="targetPoint" />
          </mxGeometry>
        </mxCell>
        <mxCell id="E9IQQNpxCoHpaYY9Ilyg-29" value="" style="endArrow=none;html=1;rounded=0;exitX=1;exitY=0.5;exitDx=0;exitDy=0;entryX=0;entryY=0.5;entryDx=0;entryDy=0;" edge="1" parent="1" source="E9IQQNpxCoHpaYY9Ilyg-5" target="E9IQQNpxCoHpaYY9Ilyg-24">
          <mxGeometry relative="1" as="geometry">
            <mxPoint x="610" y="390" as="sourcePoint" />
            <mxPoint x="770" y="390" as="targetPoint" />
          </mxGeometry>
        </mxCell>
        <mxCell id="E9IQQNpxCoHpaYY9Ilyg-30" value="" style="endArrow=none;html=1;rounded=0;exitX=0;exitY=0.5;exitDx=0;exitDy=0;entryX=0.75;entryY=0;entryDx=0;entryDy=0;" edge="1" parent="1" source="E9IQQNpxCoHpaYY9Ilyg-21" target="E9IQQNpxCoHpaYY9Ilyg-5">
          <mxGeometry relative="1" as="geometry">
            <mxPoint x="610" y="390" as="sourcePoint" />
            <mxPoint x="770" y="390" as="targetPoint" />
          </mxGeometry>
        </mxCell>
        <mxCell id="E9IQQNpxCoHpaYY9Ilyg-31" value="_name" style="ellipse;whiteSpace=wrap;html=1;align=center;" vertex="1" parent="1">
          <mxGeometry x="770" y="560" width="100" height="40" as="geometry" />
        </mxCell>
        <mxCell id="E9IQQNpxCoHpaYY9Ilyg-32" value="id_admin" style="ellipse;whiteSpace=wrap;html=1;align=center;fontStyle=4;" vertex="1" parent="1">
          <mxGeometry x="890" y="560" width="100" height="40" as="geometry" />
        </mxCell>
        <mxCell id="E9IQQNpxCoHpaYY9Ilyg-33" value="email" style="ellipse;whiteSpace=wrap;html=1;align=center;" vertex="1" parent="1">
          <mxGeometry x="630" y="560" width="100" height="40" as="geometry" />
        </mxCell>
        <mxCell id="E9IQQNpxCoHpaYY9Ilyg-35" value="phone" style="ellipse;shape=doubleEllipse;margin=3;whiteSpace=wrap;html=1;align=center;" vertex="1" parent="1">
          <mxGeometry x="500" y="560" width="100" height="40" as="geometry" />
        </mxCell>
        <mxCell id="E9IQQNpxCoHpaYY9Ilyg-36" value="" style="endArrow=none;html=1;rounded=0;exitX=0.5;exitY=0;exitDx=0;exitDy=0;entryX=0;entryY=0.5;entryDx=0;entryDy=0;" edge="1" parent="1" source="E9IQQNpxCoHpaYY9Ilyg-35" target="E9IQQNpxCoHpaYY9Ilyg-3">
          <mxGeometry relative="1" as="geometry">
            <mxPoint x="610" y="390" as="sourcePoint" />
            <mxPoint x="770" y="390" as="targetPoint" />
          </mxGeometry>
        </mxCell>
        <mxCell id="E9IQQNpxCoHpaYY9Ilyg-37" value="" style="endArrow=none;html=1;rounded=0;exitX=0.5;exitY=0;exitDx=0;exitDy=0;entryX=0.5;entryY=1;entryDx=0;entryDy=0;" edge="1" parent="1" source="E9IQQNpxCoHpaYY9Ilyg-33" target="E9IQQNpxCoHpaYY9Ilyg-3">
          <mxGeometry relative="1" as="geometry">
            <mxPoint x="610" y="390" as="sourcePoint" />
            <mxPoint x="770" y="390" as="targetPoint" />
          </mxGeometry>
        </mxCell>
        <mxCell id="E9IQQNpxCoHpaYY9Ilyg-38" value="" style="endArrow=none;html=1;rounded=0;exitX=0.5;exitY=1;exitDx=0;exitDy=0;entryX=0.5;entryY=0;entryDx=0;entryDy=0;" edge="1" parent="1" source="E9IQQNpxCoHpaYY9Ilyg-3" target="E9IQQNpxCoHpaYY9Ilyg-31">
          <mxGeometry relative="1" as="geometry">
            <mxPoint x="610" y="390" as="sourcePoint" />
            <mxPoint x="770" y="390" as="targetPoint" />
          </mxGeometry>
        </mxCell>
        <mxCell id="E9IQQNpxCoHpaYY9Ilyg-39" value="" style="endArrow=none;html=1;rounded=0;exitX=1;exitY=0.5;exitDx=0;exitDy=0;entryX=0.5;entryY=0;entryDx=0;entryDy=0;" edge="1" parent="1" source="E9IQQNpxCoHpaYY9Ilyg-3" target="E9IQQNpxCoHpaYY9Ilyg-32">
          <mxGeometry relative="1" as="geometry">
            <mxPoint x="610" y="390" as="sourcePoint" />
            <mxPoint x="770" y="390" as="targetPoint" />
          </mxGeometry>
        </mxCell>
      </root>
    </mxGraphModel>
  </diagram>
</mxfile>
